<mxfile host="65bd71144e">
    <diagram id="CahOdSKNEIQsi1tAB9Dv" name="Brainstorming">
        <mxGraphModel grid="1" page="1" gridSize="10" guides="1" tooltips="1" connect="1" arrows="1" fold="1" pageScale="1" pageWidth="850" pageHeight="1100" math="0" shadow="0">
            <root>
                <mxCell id="0"/>
                <mxCell id="1" parent="0"/>
                <mxCell id="2" value="User" style="swimlane;fontStyle=1;align=center;verticalAlign=top;childLayout=stackLayout;horizontal=1;startSize=26;horizontalStack=0;resizeParent=1;resizeParentMax=0;resizeLast=0;collapsible=1;marginBottom=0;" parent="1" vertex="1">
                    <mxGeometry x="490" y="50" width="160" height="86" as="geometry"/>
                </mxCell>
                <mxCell id="3" value="- id type?" style="text;strokeColor=none;fillColor=none;align=left;verticalAlign=top;spacingLeft=4;spacingRight=4;overflow=hidden;rotatable=0;points=[[0,0.5],[1,0.5]];portConstraint=eastwest;" parent="2" vertex="1">
                    <mxGeometry y="26" width="160" height="26" as="geometry"/>
                </mxCell>
                <mxCell id="4" value="" style="line;strokeWidth=1;fillColor=none;align=left;verticalAlign=middle;spacingTop=-1;spacingLeft=3;spacingRight=3;rotatable=0;labelPosition=right;points=[];portConstraint=eastwest;strokeColor=inherit;" parent="2" vertex="1">
                    <mxGeometry y="52" width="160" height="8" as="geometry"/>
                </mxCell>
                <mxCell id="5" value="+ method(type): type" style="text;strokeColor=none;fillColor=none;align=left;verticalAlign=top;spacingLeft=4;spacingRight=4;overflow=hidden;rotatable=0;points=[[0,0.5],[1,0.5]];portConstraint=eastwest;" parent="2" vertex="1">
                    <mxGeometry y="60" width="160" height="26" as="geometry"/>
                </mxCell>
                <mxCell id="38" style="edgeStyle=none;html=1;entryX=0.519;entryY=1.161;entryDx=0;entryDy=0;entryPerimeter=0;" parent="1" source="6" target="37" edge="1">
                    <mxGeometry relative="1" as="geometry"/>
                </mxCell>
                <mxCell id="39" style="edgeStyle=none;html=1;entryX=0.447;entryY=1.062;entryDx=0;entryDy=0;entryPerimeter=0;" parent="1" source="6" target="33" edge="1">
                    <mxGeometry relative="1" as="geometry"/>
                </mxCell>
                <mxCell id="6" value="Chat" style="swimlane;fontStyle=1;align=center;verticalAlign=top;childLayout=stackLayout;horizontal=1;startSize=26;horizontalStack=0;resizeParent=1;resizeParentMax=0;resizeLast=0;collapsible=1;marginBottom=0;" parent="1" vertex="1">
                    <mxGeometry x="70" y="440" width="160" height="86" as="geometry"/>
                </mxCell>
                <mxCell id="7" value="- List&lt;Msg&gt; msgs" style="text;strokeColor=none;fillColor=none;align=left;verticalAlign=top;spacingLeft=4;spacingRight=4;overflow=hidden;rotatable=0;points=[[0,0.5],[1,0.5]];portConstraint=eastwest;" parent="6" vertex="1">
                    <mxGeometry y="26" width="160" height="26" as="geometry"/>
                </mxCell>
                <mxCell id="8" value="" style="line;strokeWidth=1;fillColor=none;align=left;verticalAlign=middle;spacingTop=-1;spacingLeft=3;spacingRight=3;rotatable=0;labelPosition=right;points=[];portConstraint=eastwest;strokeColor=inherit;" parent="6" vertex="1">
                    <mxGeometry y="52" width="160" height="8" as="geometry"/>
                </mxCell>
                <mxCell id="9" value="+ method(type): type" style="text;strokeColor=none;fillColor=none;align=left;verticalAlign=top;spacingLeft=4;spacingRight=4;overflow=hidden;rotatable=0;points=[[0,0.5],[1,0.5]];portConstraint=eastwest;" parent="6" vertex="1">
                    <mxGeometry y="60" width="160" height="26" as="geometry"/>
                </mxCell>
                <mxCell id="27" style="edgeStyle=none;html=1;entryX=0.437;entryY=0.014;entryDx=0;entryDy=0;entryPerimeter=0;" parent="1" source="10" target="19" edge="1">
                    <mxGeometry relative="1" as="geometry"/>
                </mxCell>
                <mxCell id="10" value="Message" style="swimlane;fontStyle=1;align=center;verticalAlign=top;childLayout=stackLayout;horizontal=1;startSize=26;horizontalStack=0;resizeParent=1;resizeParentMax=0;resizeLast=0;collapsible=1;marginBottom=0;" parent="1" vertex="1">
                    <mxGeometry x="540" y="220" width="160" height="86" as="geometry"/>
                </mxCell>
                <mxCell id="11" value="- User sender" style="text;strokeColor=none;fillColor=none;align=left;verticalAlign=top;spacingLeft=4;spacingRight=4;overflow=hidden;rotatable=0;points=[[0,0.5],[1,0.5]];portConstraint=eastwest;" parent="10" vertex="1">
                    <mxGeometry y="26" width="160" height="26" as="geometry"/>
                </mxCell>
                <mxCell id="12" value="" style="line;strokeWidth=1;fillColor=none;align=left;verticalAlign=middle;spacingTop=-1;spacingLeft=3;spacingRight=3;rotatable=0;labelPosition=right;points=[];portConstraint=eastwest;strokeColor=inherit;" parent="10" vertex="1">
                    <mxGeometry y="52" width="160" height="8" as="geometry"/>
                </mxCell>
                <mxCell id="13" value="+ method(type): type" style="text;strokeColor=none;fillColor=none;align=left;verticalAlign=top;spacingLeft=4;spacingRight=4;overflow=hidden;rotatable=0;points=[[0,0.5],[1,0.5]];portConstraint=eastwest;" parent="10" vertex="1">
                    <mxGeometry y="60" width="160" height="26" as="geometry"/>
                </mxCell>
                <mxCell id="14" value="TextMsg" style="swimlane;fontStyle=1;align=center;verticalAlign=top;childLayout=stackLayout;horizontal=1;startSize=26;horizontalStack=0;resizeParent=1;resizeParentMax=0;resizeLast=0;collapsible=1;marginBottom=0;" parent="1" vertex="1">
                    <mxGeometry x="360" y="380" width="160" height="86" as="geometry"/>
                </mxCell>
                <mxCell id="15" value="+ field: type" style="text;strokeColor=none;fillColor=none;align=left;verticalAlign=top;spacingLeft=4;spacingRight=4;overflow=hidden;rotatable=0;points=[[0,0.5],[1,0.5]];portConstraint=eastwest;" parent="14" vertex="1">
                    <mxGeometry y="26" width="160" height="26" as="geometry"/>
                </mxCell>
                <mxCell id="16" value="" style="line;strokeWidth=1;fillColor=none;align=left;verticalAlign=middle;spacingTop=-1;spacingLeft=3;spacingRight=3;rotatable=0;labelPosition=right;points=[];portConstraint=eastwest;strokeColor=inherit;" parent="14" vertex="1">
                    <mxGeometry y="52" width="160" height="8" as="geometry"/>
                </mxCell>
                <mxCell id="17" value="+ method(type): type" style="text;strokeColor=none;fillColor=none;align=left;verticalAlign=top;spacingLeft=4;spacingRight=4;overflow=hidden;rotatable=0;points=[[0,0.5],[1,0.5]];portConstraint=eastwest;" parent="14" vertex="1">
                    <mxGeometry y="60" width="160" height="26" as="geometry"/>
                </mxCell>
                <mxCell id="19" value="ImageMsg" style="swimlane;fontStyle=1;align=center;verticalAlign=top;childLayout=stackLayout;horizontal=1;startSize=26;horizontalStack=0;resizeParent=1;resizeParentMax=0;resizeLast=0;collapsible=1;marginBottom=0;" parent="1" vertex="1">
                    <mxGeometry x="430" y="520" width="160" height="86" as="geometry"/>
                </mxCell>
                <mxCell id="20" value="+ field: type" style="text;strokeColor=none;fillColor=none;align=left;verticalAlign=top;spacingLeft=4;spacingRight=4;overflow=hidden;rotatable=0;points=[[0,0.5],[1,0.5]];portConstraint=eastwest;" parent="19" vertex="1">
                    <mxGeometry y="26" width="160" height="26" as="geometry"/>
                </mxCell>
                <mxCell id="21" value="" style="line;strokeWidth=1;fillColor=none;align=left;verticalAlign=middle;spacingTop=-1;spacingLeft=3;spacingRight=3;rotatable=0;labelPosition=right;points=[];portConstraint=eastwest;strokeColor=inherit;" parent="19" vertex="1">
                    <mxGeometry y="52" width="160" height="8" as="geometry"/>
                </mxCell>
                <mxCell id="22" value="+ method(type): type" style="text;strokeColor=none;fillColor=none;align=left;verticalAlign=top;spacingLeft=4;spacingRight=4;overflow=hidden;rotatable=0;points=[[0,0.5],[1,0.5]];portConstraint=eastwest;" parent="19" vertex="1">
                    <mxGeometry y="60" width="160" height="26" as="geometry"/>
                </mxCell>
                <mxCell id="23" value="FileMsg" style="swimlane;fontStyle=1;align=center;verticalAlign=top;childLayout=stackLayout;horizontal=1;startSize=26;horizontalStack=0;resizeParent=1;resizeParentMax=0;resizeLast=0;collapsible=1;marginBottom=0;" parent="1" vertex="1">
                    <mxGeometry x="620" y="380" width="160" height="86" as="geometry"/>
                </mxCell>
                <mxCell id="24" value="+ field: type" style="text;strokeColor=none;fillColor=none;align=left;verticalAlign=top;spacingLeft=4;spacingRight=4;overflow=hidden;rotatable=0;points=[[0,0.5],[1,0.5]];portConstraint=eastwest;" parent="23" vertex="1">
                    <mxGeometry y="26" width="160" height="26" as="geometry"/>
                </mxCell>
                <mxCell id="25" value="" style="line;strokeWidth=1;fillColor=none;align=left;verticalAlign=middle;spacingTop=-1;spacingLeft=3;spacingRight=3;rotatable=0;labelPosition=right;points=[];portConstraint=eastwest;strokeColor=inherit;" parent="23" vertex="1">
                    <mxGeometry y="52" width="160" height="8" as="geometry"/>
                </mxCell>
                <mxCell id="26" value="+ method(type): type" style="text;strokeColor=none;fillColor=none;align=left;verticalAlign=top;spacingLeft=4;spacingRight=4;overflow=hidden;rotatable=0;points=[[0,0.5],[1,0.5]];portConstraint=eastwest;" parent="23" vertex="1">
                    <mxGeometry y="60" width="160" height="26" as="geometry"/>
                </mxCell>
                <mxCell id="28" style="edgeStyle=none;html=1;entryX=0.591;entryY=-0.002;entryDx=0;entryDy=0;entryPerimeter=0;" parent="1" source="13" target="23" edge="1">
                    <mxGeometry relative="1" as="geometry"/>
                </mxCell>
                <mxCell id="29" style="edgeStyle=none;html=1;entryX=0.5;entryY=0;entryDx=0;entryDy=0;" parent="1" source="13" target="14" edge="1">
                    <mxGeometry relative="1" as="geometry"/>
                </mxCell>
                <mxCell id="30" value="PrivateChat" style="swimlane;fontStyle=1;align=center;verticalAlign=top;childLayout=stackLayout;horizontal=1;startSize=26;horizontalStack=0;resizeParent=1;resizeParentMax=0;resizeLast=0;collapsible=1;marginBottom=0;" parent="1" vertex="1">
                    <mxGeometry x="90" y="50" width="160" height="86" as="geometry"/>
                </mxCell>
                <mxCell id="49" value="- Reciver" style="text;strokeColor=none;fillColor=none;align=left;verticalAlign=top;spacingLeft=4;spacingRight=4;overflow=hidden;rotatable=0;points=[[0,0.5],[1,0.5]];portConstraint=eastwest;" parent="30" vertex="1">
                    <mxGeometry y="26" width="160" height="26" as="geometry"/>
                </mxCell>
                <mxCell id="32" value="" style="line;strokeWidth=1;fillColor=none;align=left;verticalAlign=middle;spacingTop=-1;spacingLeft=3;spacingRight=3;rotatable=0;labelPosition=right;points=[];portConstraint=eastwest;strokeColor=inherit;" parent="30" vertex="1">
                    <mxGeometry y="52" width="160" height="8" as="geometry"/>
                </mxCell>
                <mxCell id="33" value="+ method(type): type" style="text;strokeColor=none;fillColor=none;align=left;verticalAlign=top;spacingLeft=4;spacingRight=4;overflow=hidden;rotatable=0;points=[[0,0.5],[1,0.5]];portConstraint=eastwest;" parent="30" vertex="1">
                    <mxGeometry y="60" width="160" height="26" as="geometry"/>
                </mxCell>
                <mxCell id="34" value="GroupChat" style="swimlane;fontStyle=1;align=center;verticalAlign=top;childLayout=stackLayout;horizontal=1;startSize=26;horizontalStack=0;resizeParent=1;resizeParentMax=0;resizeLast=0;collapsible=1;marginBottom=0;" parent="1" vertex="1">
                    <mxGeometry x="40" y="190" width="160" height="86" as="geometry"/>
                </mxCell>
                <mxCell id="35" value="+ List&lt;User&gt; users" style="text;strokeColor=none;fillColor=none;align=left;verticalAlign=top;spacingLeft=4;spacingRight=4;overflow=hidden;rotatable=0;points=[[0,0.5],[1,0.5]];portConstraint=eastwest;" parent="34" vertex="1">
                    <mxGeometry y="26" width="160" height="26" as="geometry"/>
                </mxCell>
                <mxCell id="36" value="" style="line;strokeWidth=1;fillColor=none;align=left;verticalAlign=middle;spacingTop=-1;spacingLeft=3;spacingRight=3;rotatable=0;labelPosition=right;points=[];portConstraint=eastwest;strokeColor=inherit;" parent="34" vertex="1">
                    <mxGeometry y="52" width="160" height="8" as="geometry"/>
                </mxCell>
                <mxCell id="37" value="+ method(type): type" style="text;strokeColor=none;fillColor=none;align=left;verticalAlign=top;spacingLeft=4;spacingRight=4;overflow=hidden;rotatable=0;points=[[0,0.5],[1,0.5]];portConstraint=eastwest;" parent="34" vertex="1">
                    <mxGeometry y="60" width="160" height="26" as="geometry"/>
                </mxCell>
                <mxCell id="42" style="edgeStyle=none;html=1;exitX=1;exitY=0.5;exitDx=0;exitDy=0;entryX=0;entryY=0.5;entryDx=0;entryDy=0;" parent="1" source="7" target="11" edge="1">
                    <mxGeometry relative="1" as="geometry">
                        <Array as="points">
                            <mxPoint x="310" y="300"/>
                        </Array>
                    </mxGeometry>
                </mxCell>
                <mxCell id="45" style="edgeStyle=none;html=1;exitX=1;exitY=0.5;exitDx=0;exitDy=0;entryX=1;entryY=0.5;entryDx=0;entryDy=0;" parent="1" source="11" target="3" edge="1">
                    <mxGeometry relative="1" as="geometry">
                        <Array as="points">
                            <mxPoint x="720" y="150"/>
                        </Array>
                    </mxGeometry>
                </mxCell>
                <mxCell id="48" style="edgeStyle=none;html=1;exitX=1;exitY=0.5;exitDx=0;exitDy=0;entryX=0;entryY=0.5;entryDx=0;entryDy=0;" parent="1" source="35" target="2" edge="1">
                    <mxGeometry relative="1" as="geometry"/>
                </mxCell>
                <mxCell id="51" style="edgeStyle=none;html=1;exitX=1;exitY=0.5;exitDx=0;exitDy=0;entryX=0;entryY=0.5;entryDx=0;entryDy=0;" parent="1" source="49" target="3" edge="1">
                    <mxGeometry relative="1" as="geometry"/>
                </mxCell>
            </root>
        </mxGraphModel>
    </diagram>
    <diagram id="sYAJwcr6_j2XCcsf-l9h" name="The real one">
        <mxGraphModel dx="2413" dy="1005" grid="1" gridSize="10" guides="1" tooltips="1" connect="1" arrows="1" fold="1" page="1" pageScale="1" pageWidth="850" pageHeight="1100" math="0" shadow="0">
            <root>
                <mxCell id="0"/>
                <mxCell id="1" parent="0"/>
                <mxCell id="-wl2Nt5sNTE4O7syCm0q-1" value="Classname" style="swimlane;fontStyle=1;align=center;verticalAlign=top;childLayout=stackLayout;horizontal=1;startSize=26;horizontalStack=0;resizeParent=1;resizeParentMax=0;resizeLast=0;collapsible=1;marginBottom=0;" vertex="1" parent="1">
                    <mxGeometry x="70" y="60" width="160" height="86" as="geometry"/>
                </mxCell>
                <mxCell id="-wl2Nt5sNTE4O7syCm0q-2" value="+ field: type" style="text;strokeColor=none;fillColor=none;align=left;verticalAlign=top;spacingLeft=4;spacingRight=4;overflow=hidden;rotatable=0;points=[[0,0.5],[1,0.5]];portConstraint=eastwest;" vertex="1" parent="-wl2Nt5sNTE4O7syCm0q-1">
                    <mxGeometry y="26" width="160" height="26" as="geometry"/>
                </mxCell>
                <mxCell id="-wl2Nt5sNTE4O7syCm0q-3" value="" style="line;strokeWidth=1;fillColor=none;align=left;verticalAlign=middle;spacingTop=-1;spacingLeft=3;spacingRight=3;rotatable=0;labelPosition=right;points=[];portConstraint=eastwest;strokeColor=inherit;" vertex="1" parent="-wl2Nt5sNTE4O7syCm0q-1">
                    <mxGeometry y="52" width="160" height="8" as="geometry"/>
                </mxCell>
                <mxCell id="-wl2Nt5sNTE4O7syCm0q-4" value="+ method(type): type" style="text;strokeColor=none;fillColor=none;align=left;verticalAlign=top;spacingLeft=4;spacingRight=4;overflow=hidden;rotatable=0;points=[[0,0.5],[1,0.5]];portConstraint=eastwest;" vertex="1" parent="-wl2Nt5sNTE4O7syCm0q-1">
                    <mxGeometry y="60" width="160" height="26" as="geometry"/>
                </mxCell>
                <mxCell id="-wl2Nt5sNTE4O7syCm0q-5" value="Relation" style="endArrow=open;html=1;endSize=12;startArrow=diamondThin;startSize=14;startFill=0;edgeStyle=orthogonalEdgeStyle;" edge="1" parent="1">
                    <mxGeometry relative="1" as="geometry">
                        <mxPoint x="110" y="290" as="sourcePoint"/>
                        <mxPoint x="270" y="290" as="targetPoint"/>
                    </mxGeometry>
                </mxCell>
                <mxCell id="-wl2Nt5sNTE4O7syCm0q-6" value="0..n" style="edgeLabel;resizable=0;html=1;align=left;verticalAlign=top;" connectable="0" vertex="1" parent="-wl2Nt5sNTE4O7syCm0q-5">
                    <mxGeometry x="-1" relative="1" as="geometry"/>
                </mxCell>
                <mxCell id="-wl2Nt5sNTE4O7syCm0q-7" value="1" style="edgeLabel;resizable=0;html=1;align=right;verticalAlign=top;" connectable="0" vertex="1" parent="-wl2Nt5sNTE4O7syCm0q-5">
                    <mxGeometry x="1" relative="1" as="geometry"/>
                </mxCell>
                <mxCell id="-wl2Nt5sNTE4O7syCm0q-9" value="" style="endArrow=classic;html=1;" edge="1" parent="1">
                    <mxGeometry width="50" height="50" relative="1" as="geometry">
                        <mxPoint x="220" y="230" as="sourcePoint"/>
                        <mxPoint x="270" y="180" as="targetPoint"/>
                    </mxGeometry>
                </mxCell>
                <mxCell id="-wl2Nt5sNTE4O7syCm0q-10" value="User" style="swimlane;fontStyle=1;align=center;verticalAlign=top;childLayout=stackLayout;horizontal=1;startSize=26;horizontalStack=0;resizeParent=1;resizeParentMax=0;resizeLast=0;collapsible=1;marginBottom=0;" vertex="1" parent="1">
                    <mxGeometry x="920" y="110" width="160" height="130" as="geometry"/>
                </mxCell>
                <mxCell id="-wl2Nt5sNTE4O7syCm0q-14" value="- uid: String" style="text;strokeColor=none;fillColor=none;align=left;verticalAlign=top;spacingLeft=4;spacingRight=4;overflow=hidden;rotatable=0;points=[[0,0.5],[1,0.5]];portConstraint=eastwest;" vertex="1" parent="-wl2Nt5sNTE4O7syCm0q-10">
                    <mxGeometry y="26" width="160" height="26" as="geometry"/>
                </mxCell>
                <mxCell id="-wl2Nt5sNTE4O7syCm0q-11" value="- phoneNumber: String" style="text;strokeColor=none;fillColor=none;align=left;verticalAlign=top;spacingLeft=4;spacingRight=4;overflow=hidden;rotatable=0;points=[[0,0.5],[1,0.5]];portConstraint=eastwest;" vertex="1" parent="-wl2Nt5sNTE4O7syCm0q-10">
                    <mxGeometry y="52" width="160" height="26" as="geometry"/>
                </mxCell>
                <mxCell id="-wl2Nt5sNTE4O7syCm0q-86" value="- ImageURL: String?" style="text;strokeColor=none;fillColor=none;align=left;verticalAlign=top;spacingLeft=4;spacingRight=4;overflow=hidden;rotatable=0;points=[[0,0.5],[1,0.5]];portConstraint=eastwest;" vertex="1" parent="-wl2Nt5sNTE4O7syCm0q-10">
                    <mxGeometry y="78" width="160" height="26" as="geometry"/>
                </mxCell>
                <mxCell id="-wl2Nt5sNTE4O7syCm0q-87" value="- nickname: String?" style="text;strokeColor=none;fillColor=none;align=left;verticalAlign=top;spacingLeft=4;spacingRight=4;overflow=hidden;rotatable=0;points=[[0,0.5],[1,0.5]];portConstraint=eastwest;" vertex="1" parent="-wl2Nt5sNTE4O7syCm0q-10">
                    <mxGeometry y="104" width="160" height="26" as="geometry"/>
                </mxCell>
                <mxCell id="-wl2Nt5sNTE4O7syCm0q-15" value="Abstract Chat" style="swimlane;fontStyle=1;align=center;verticalAlign=top;childLayout=stackLayout;horizontal=1;startSize=26;horizontalStack=0;resizeParent=1;resizeParentMax=0;resizeLast=0;collapsible=1;marginBottom=0;" vertex="1" parent="1">
                    <mxGeometry x="370" y="320" width="210" height="190" as="geometry"/>
                </mxCell>
                <mxCell id="-wl2Nt5sNTE4O7syCm0q-118" value="- id: String" style="text;strokeColor=none;fillColor=none;align=left;verticalAlign=top;spacingLeft=4;spacingRight=4;overflow=hidden;rotatable=0;points=[[0,0.5],[1,0.5]];portConstraint=eastwest;" vertex="1" parent="-wl2Nt5sNTE4O7syCm0q-15">
                    <mxGeometry y="26" width="210" height="26" as="geometry"/>
                </mxCell>
                <mxCell id="-wl2Nt5sNTE4O7syCm0q-16" value="- msgs: List&lt;Message&gt;" style="text;strokeColor=none;fillColor=none;align=left;verticalAlign=top;spacingLeft=4;spacingRight=4;overflow=hidden;rotatable=0;points=[[0,0.5],[1,0.5]];portConstraint=eastwest;" vertex="1" parent="-wl2Nt5sNTE4O7syCm0q-15">
                    <mxGeometry y="52" width="210" height="26" as="geometry"/>
                </mxCell>
                <mxCell id="-wl2Nt5sNTE4O7syCm0q-19" value="- members: List&lt;User&gt;" style="text;strokeColor=none;fillColor=none;align=left;verticalAlign=top;spacingLeft=4;spacingRight=4;overflow=hidden;rotatable=0;points=[[0,0.5],[1,0.5]];portConstraint=eastwest;" vertex="1" parent="-wl2Nt5sNTE4O7syCm0q-15">
                    <mxGeometry y="78" width="210" height="26" as="geometry"/>
                </mxCell>
                <mxCell id="-wl2Nt5sNTE4O7syCm0q-26" value="- chatType: {private, group, personal}" style="text;strokeColor=none;fillColor=none;align=left;verticalAlign=top;spacingLeft=4;spacingRight=4;overflow=hidden;rotatable=0;points=[[0,0.5],[1,0.5]];portConstraint=eastwest;" vertex="1" parent="-wl2Nt5sNTE4O7syCm0q-15">
                    <mxGeometry y="104" width="210" height="26" as="geometry"/>
                </mxCell>
                <mxCell id="-wl2Nt5sNTE4O7syCm0q-17" value="" style="line;strokeWidth=1;fillColor=none;align=left;verticalAlign=middle;spacingTop=-1;spacingLeft=3;spacingRight=3;rotatable=0;labelPosition=right;points=[];portConstraint=eastwest;strokeColor=inherit;" vertex="1" parent="-wl2Nt5sNTE4O7syCm0q-15">
                    <mxGeometry y="130" width="210" height="8" as="geometry"/>
                </mxCell>
                <mxCell id="-wl2Nt5sNTE4O7syCm0q-18" value="+ sendMsg(Message): void" style="text;strokeColor=none;fillColor=none;align=left;verticalAlign=top;spacingLeft=4;spacingRight=4;overflow=hidden;rotatable=0;points=[[0,0.5],[1,0.5]];portConstraint=eastwest;" vertex="1" parent="-wl2Nt5sNTE4O7syCm0q-15">
                    <mxGeometry y="138" width="210" height="26" as="geometry"/>
                </mxCell>
                <mxCell id="-wl2Nt5sNTE4O7syCm0q-27" value="+ removeMsg(Message): void" style="text;strokeColor=none;fillColor=none;align=left;verticalAlign=top;spacingLeft=4;spacingRight=4;overflow=hidden;rotatable=0;points=[[0,0.5],[1,0.5]];portConstraint=eastwest;" vertex="1" parent="-wl2Nt5sNTE4O7syCm0q-15">
                    <mxGeometry y="164" width="210" height="26" as="geometry"/>
                </mxCell>
                <mxCell id="-wl2Nt5sNTE4O7syCm0q-29" value="" style="endArrow=classic;html=1;" edge="1" parent="1" source="-wl2Nt5sNTE4O7syCm0q-31" target="-wl2Nt5sNTE4O7syCm0q-15">
                    <mxGeometry width="50" height="50" relative="1" as="geometry">
                        <mxPoint x="320" y="560" as="sourcePoint"/>
                        <mxPoint x="310" y="470" as="targetPoint"/>
                    </mxGeometry>
                </mxCell>
                <mxCell id="-wl2Nt5sNTE4O7syCm0q-31" value="PersonalChat" style="swimlane;fontStyle=1;align=center;verticalAlign=top;childLayout=stackLayout;horizontal=1;startSize=26;horizontalStack=0;resizeParent=1;resizeParentMax=0;resizeLast=0;collapsible=1;marginBottom=0;" vertex="1" parent="1">
                    <mxGeometry x="150" y="510" width="125" height="86" as="geometry"/>
                </mxCell>
                <mxCell id="-wl2Nt5sNTE4O7syCm0q-35" value="Members=[uid]" style="text;html=1;align=center;verticalAlign=middle;resizable=0;points=[];autosize=1;strokeColor=none;fillColor=none;" vertex="1" parent="-wl2Nt5sNTE4O7syCm0q-31">
                    <mxGeometry y="26" width="125" height="30" as="geometry"/>
                </mxCell>
                <mxCell id="-wl2Nt5sNTE4O7syCm0q-41" value="chatType=personal" style="text;html=1;align=center;verticalAlign=middle;resizable=0;points=[];autosize=1;strokeColor=none;fillColor=none;" vertex="1" parent="-wl2Nt5sNTE4O7syCm0q-31">
                    <mxGeometry y="56" width="125" height="30" as="geometry"/>
                </mxCell>
                <mxCell id="-wl2Nt5sNTE4O7syCm0q-36" value="PrivateChat" style="swimlane;fontStyle=1;align=center;verticalAlign=top;childLayout=stackLayout;horizontal=1;startSize=26;horizontalStack=0;resizeParent=1;resizeParentMax=0;resizeLast=0;collapsible=1;marginBottom=0;" vertex="1" parent="1">
                    <mxGeometry x="150" y="650" width="160" height="86" as="geometry"/>
                </mxCell>
                <mxCell id="-wl2Nt5sNTE4O7syCm0q-42" value="Members=[uid,otherUid]" style="text;html=1;align=center;verticalAlign=middle;resizable=0;points=[];autosize=1;strokeColor=none;fillColor=none;" vertex="1" parent="-wl2Nt5sNTE4O7syCm0q-36">
                    <mxGeometry y="26" width="160" height="30" as="geometry"/>
                </mxCell>
                <mxCell id="-wl2Nt5sNTE4O7syCm0q-44" value="chatType=private" style="text;html=1;align=center;verticalAlign=middle;resizable=0;points=[];autosize=1;strokeColor=none;fillColor=none;" vertex="1" parent="-wl2Nt5sNTE4O7syCm0q-36">
                    <mxGeometry y="56" width="160" height="30" as="geometry"/>
                </mxCell>
                <mxCell id="-wl2Nt5sNTE4O7syCm0q-40" value="" style="endArrow=classic;html=1;exitX=1;exitY=0;exitDx=0;exitDy=0;" edge="1" parent="1" source="-wl2Nt5sNTE4O7syCm0q-36" target="-wl2Nt5sNTE4O7syCm0q-15">
                    <mxGeometry width="50" height="50" relative="1" as="geometry">
                        <mxPoint x="310" y="760" as="sourcePoint"/>
                        <mxPoint x="380" y="660" as="targetPoint"/>
                    </mxGeometry>
                </mxCell>
                <mxCell id="-wl2Nt5sNTE4O7syCm0q-43" value="Members.len ==2" style="text;html=1;align=center;verticalAlign=middle;resizable=0;points=[];autosize=1;strokeColor=none;fillColor=none;" vertex="1" parent="1">
                    <mxGeometry x="310" y="678" width="120" height="30" as="geometry"/>
                </mxCell>
                <mxCell id="-wl2Nt5sNTE4O7syCm0q-48" value="GroupChat" style="swimlane;fontStyle=1;align=center;verticalAlign=top;childLayout=stackLayout;horizontal=1;startSize=26;horizontalStack=0;resizeParent=1;resizeParentMax=0;resizeLast=0;collapsible=1;marginBottom=0;" vertex="1" parent="1">
                    <mxGeometry x="450" y="622" width="175" height="354" as="geometry"/>
                </mxCell>
                <mxCell id="-wl2Nt5sNTE4O7syCm0q-54" value="- admins: List&lt;User&gt;" style="text;strokeColor=none;fillColor=none;align=left;verticalAlign=top;spacingLeft=4;spacingRight=4;overflow=hidden;rotatable=0;points=[[0,0.5],[1,0.5]];portConstraint=eastwest;" vertex="1" parent="-wl2Nt5sNTE4O7syCm0q-48">
                    <mxGeometry y="26" width="175" height="26" as="geometry"/>
                </mxCell>
                <mxCell id="-wl2Nt5sNTE4O7syCm0q-115" value="- createdBy: String" style="text;strokeColor=none;fillColor=none;align=left;verticalAlign=top;spacingLeft=4;spacingRight=4;overflow=hidden;rotatable=0;points=[[0,0.5],[1,0.5]];portConstraint=eastwest;" vertex="1" parent="-wl2Nt5sNTE4O7syCm0q-48">
                    <mxGeometry y="52" width="175" height="26" as="geometry"/>
                </mxCell>
                <mxCell id="-wl2Nt5sNTE4O7syCm0q-68" value="- groupName: String" style="text;strokeColor=none;fillColor=none;align=left;verticalAlign=top;spacingLeft=4;spacingRight=4;overflow=hidden;rotatable=0;points=[[0,0.5],[1,0.5]];portConstraint=eastwest;" vertex="1" parent="-wl2Nt5sNTE4O7syCm0q-48">
                    <mxGeometry y="78" width="175" height="26" as="geometry"/>
                </mxCell>
                <mxCell id="-wl2Nt5sNTE4O7syCm0q-69" value="- groupImageURL: String?" style="text;strokeColor=none;fillColor=none;align=left;verticalAlign=top;spacingLeft=4;spacingRight=4;overflow=hidden;rotatable=0;points=[[0,0.5],[1,0.5]];portConstraint=eastwest;" vertex="1" parent="-wl2Nt5sNTE4O7syCm0q-48">
                    <mxGeometry y="104" width="175" height="26" as="geometry"/>
                </mxCell>
                <mxCell id="-wl2Nt5sNTE4O7syCm0q-60" value="- adminOnly: bool = false" style="text;strokeColor=none;fillColor=none;align=left;verticalAlign=top;spacingLeft=4;spacingRight=4;overflow=hidden;rotatable=0;points=[[0,0.5],[1,0.5]];portConstraint=eastwest;" vertex="1" parent="-wl2Nt5sNTE4O7syCm0q-48">
                    <mxGeometry y="130" width="175" height="26" as="geometry"/>
                </mxCell>
                <mxCell id="-wl2Nt5sNTE4O7syCm0q-49" value="Members=[uid,...]" style="text;html=1;align=center;verticalAlign=middle;resizable=0;points=[];autosize=1;strokeColor=none;fillColor=none;" vertex="1" parent="-wl2Nt5sNTE4O7syCm0q-48">
                    <mxGeometry y="156" width="175" height="30" as="geometry"/>
                </mxCell>
                <mxCell id="-wl2Nt5sNTE4O7syCm0q-50" value="chatType=group" style="text;html=1;align=center;verticalAlign=middle;resizable=0;points=[];autosize=1;strokeColor=none;fillColor=none;" vertex="1" parent="-wl2Nt5sNTE4O7syCm0q-48">
                    <mxGeometry y="186" width="175" height="30" as="geometry"/>
                </mxCell>
                <mxCell id="-wl2Nt5sNTE4O7syCm0q-55" value="" style="line;strokeWidth=1;fillColor=none;align=left;verticalAlign=middle;spacingTop=-1;spacingLeft=3;spacingRight=3;rotatable=0;labelPosition=right;points=[];portConstraint=eastwest;strokeColor=inherit;" vertex="1" parent="-wl2Nt5sNTE4O7syCm0q-48">
                    <mxGeometry y="216" width="175" height="8" as="geometry"/>
                </mxCell>
                <mxCell id="-wl2Nt5sNTE4O7syCm0q-56" value="+ addUser(User): void" style="text;strokeColor=none;fillColor=none;align=left;verticalAlign=top;spacingLeft=4;spacingRight=4;overflow=hidden;rotatable=0;points=[[0,0.5],[1,0.5]];portConstraint=eastwest;" vertex="1" parent="-wl2Nt5sNTE4O7syCm0q-48">
                    <mxGeometry y="224" width="175" height="26" as="geometry"/>
                </mxCell>
                <mxCell id="-wl2Nt5sNTE4O7syCm0q-59" value="+ setAdmin(User): void" style="text;strokeColor=none;fillColor=none;align=left;verticalAlign=top;spacingLeft=4;spacingRight=4;overflow=hidden;rotatable=0;points=[[0,0.5],[1,0.5]];portConstraint=eastwest;" vertex="1" parent="-wl2Nt5sNTE4O7syCm0q-48">
                    <mxGeometry y="250" width="175" height="26" as="geometry"/>
                </mxCell>
                <mxCell id="-wl2Nt5sNTE4O7syCm0q-114" value="+ removeAdmin(User): void" style="text;strokeColor=none;fillColor=none;align=left;verticalAlign=top;spacingLeft=4;spacingRight=4;overflow=hidden;rotatable=0;points=[[0,0.5],[1,0.5]];portConstraint=eastwest;" vertex="1" parent="-wl2Nt5sNTE4O7syCm0q-48">
                    <mxGeometry y="276" width="175" height="26" as="geometry"/>
                </mxCell>
                <mxCell id="-wl2Nt5sNTE4O7syCm0q-57" value="+ removeUser(User): void" style="text;strokeColor=none;fillColor=none;align=left;verticalAlign=top;spacingLeft=4;spacingRight=4;overflow=hidden;rotatable=0;points=[[0,0.5],[1,0.5]];portConstraint=eastwest;" vertex="1" parent="-wl2Nt5sNTE4O7syCm0q-48">
                    <mxGeometry y="302" width="175" height="26" as="geometry"/>
                </mxCell>
                <mxCell id="-wl2Nt5sNTE4O7syCm0q-61" value="+ setAdminOnly(bool): void" style="text;strokeColor=none;fillColor=none;align=left;verticalAlign=top;spacingLeft=4;spacingRight=4;overflow=hidden;rotatable=0;points=[[0,0.5],[1,0.5]];portConstraint=eastwest;" vertex="1" parent="-wl2Nt5sNTE4O7syCm0q-48">
                    <mxGeometry y="328" width="175" height="26" as="geometry"/>
                </mxCell>
                <mxCell id="-wl2Nt5sNTE4O7syCm0q-51" value="Members.len &amp;gt;=1" style="text;html=1;align=center;verticalAlign=middle;resizable=0;points=[];autosize=1;strokeColor=none;fillColor=none;" vertex="1" parent="1">
                    <mxGeometry x="625" y="758" width="120" height="30" as="geometry"/>
                </mxCell>
                <mxCell id="-wl2Nt5sNTE4O7syCm0q-52" value="" style="endArrow=classic;html=1;" edge="1" parent="1" source="-wl2Nt5sNTE4O7syCm0q-48" target="-wl2Nt5sNTE4O7syCm0q-27">
                    <mxGeometry width="50" height="50" relative="1" as="geometry">
                        <mxPoint x="320" y="660" as="sourcePoint"/>
                        <mxPoint x="418.29787234042556" y="520" as="targetPoint"/>
                    </mxGeometry>
                </mxCell>
                <mxCell id="-wl2Nt5sNTE4O7syCm0q-62" value="admins.len &amp;gt;=1" style="text;html=1;align=center;verticalAlign=middle;resizable=0;points=[];autosize=1;strokeColor=none;fillColor=none;" vertex="1" parent="1">
                    <mxGeometry x="625" y="650" width="110" height="30" as="geometry"/>
                </mxCell>
                <mxCell id="-wl2Nt5sNTE4O7syCm0q-63" value="Abstract Message" style="swimlane;fontStyle=1;align=center;verticalAlign=top;childLayout=stackLayout;horizontal=1;startSize=26;horizontalStack=0;resizeParent=1;resizeParentMax=0;resizeLast=0;collapsible=1;marginBottom=0;" vertex="1" parent="1">
                    <mxGeometry x="1140" y="380" width="230" height="190" as="geometry"/>
                </mxCell>
                <mxCell id="-wl2Nt5sNTE4O7syCm0q-117" value="- id: String" style="text;strokeColor=none;fillColor=none;align=left;verticalAlign=top;spacingLeft=4;spacingRight=4;overflow=hidden;rotatable=0;points=[[0,0.5],[1,0.5]];portConstraint=eastwest;" vertex="1" parent="-wl2Nt5sNTE4O7syCm0q-63">
                    <mxGeometry y="26" width="230" height="26" as="geometry"/>
                </mxCell>
                <mxCell id="-wl2Nt5sNTE4O7syCm0q-64" value="- sender: String" style="text;strokeColor=none;fillColor=none;align=left;verticalAlign=top;spacingLeft=4;spacingRight=4;overflow=hidden;rotatable=0;points=[[0,0.5],[1,0.5]];portConstraint=eastwest;" vertex="1" parent="-wl2Nt5sNTE4O7syCm0q-63">
                    <mxGeometry y="52" width="230" height="26" as="geometry"/>
                </mxCell>
                <mxCell id="-wl2Nt5sNTE4O7syCm0q-72" value="- text: String" style="text;strokeColor=none;fillColor=none;align=left;verticalAlign=top;spacingLeft=4;spacingRight=4;overflow=hidden;rotatable=0;points=[[0,0.5],[1,0.5]];portConstraint=eastwest;" vertex="1" parent="-wl2Nt5sNTE4O7syCm0q-63">
                    <mxGeometry y="78" width="230" height="26" as="geometry"/>
                </mxCell>
                <mxCell id="-wl2Nt5sNTE4O7syCm0q-107" value="- time: Datetime" style="text;strokeColor=none;fillColor=none;align=left;verticalAlign=top;spacingLeft=4;spacingRight=4;overflow=hidden;rotatable=0;points=[[0,0.5],[1,0.5]];portConstraint=eastwest;" vertex="1" parent="-wl2Nt5sNTE4O7syCm0q-63">
                    <mxGeometry y="104" width="230" height="26" as="geometry"/>
                </mxCell>
                <mxCell id="-wl2Nt5sNTE4O7syCm0q-140" value="- msgType: {text, file,image,video,sticker}" style="text;strokeColor=none;fillColor=none;align=left;verticalAlign=top;spacingLeft=4;spacingRight=4;overflow=hidden;rotatable=0;points=[[0,0.5],[1,0.5]];portConstraint=eastwest;" vertex="1" parent="-wl2Nt5sNTE4O7syCm0q-63">
                    <mxGeometry y="130" width="230" height="26" as="geometry"/>
                </mxCell>
                <mxCell id="-wl2Nt5sNTE4O7syCm0q-65" value="" style="line;strokeWidth=1;fillColor=none;align=left;verticalAlign=middle;spacingTop=-1;spacingLeft=3;spacingRight=3;rotatable=0;labelPosition=right;points=[];portConstraint=eastwest;strokeColor=inherit;" vertex="1" parent="-wl2Nt5sNTE4O7syCm0q-63">
                    <mxGeometry y="156" width="230" height="8" as="geometry"/>
                </mxCell>
                <mxCell id="-wl2Nt5sNTE4O7syCm0q-28" value="+ editText(String): void" style="text;strokeColor=none;fillColor=none;align=left;verticalAlign=top;spacingLeft=4;spacingRight=4;overflow=hidden;rotatable=0;points=[[0,0.5],[1,0.5]];portConstraint=eastwest;" vertex="1" parent="-wl2Nt5sNTE4O7syCm0q-63">
                    <mxGeometry y="164" width="230" height="26" as="geometry"/>
                </mxCell>
                <mxCell id="-wl2Nt5sNTE4O7syCm0q-67" value="" style="endArrow=classic;html=1;" edge="1" parent="1" source="-wl2Nt5sNTE4O7syCm0q-73" target="-wl2Nt5sNTE4O7syCm0q-63">
                    <mxGeometry width="50" height="50" relative="1" as="geometry">
                        <mxPoint x="1358.3825282667872" y="699.37" as="sourcePoint"/>
                        <mxPoint x="1140.3200000000002" y="490.88200000000006" as="targetPoint"/>
                    </mxGeometry>
                </mxCell>
                <mxCell id="-wl2Nt5sNTE4O7syCm0q-73" value="TextMessage" style="swimlane;fontStyle=1;align=center;verticalAlign=top;childLayout=stackLayout;horizontal=1;startSize=26;horizontalStack=0;resizeParent=1;resizeParentMax=0;resizeLast=0;collapsible=1;marginBottom=0;" vertex="1" parent="1">
                    <mxGeometry x="1110" y="630" width="90" height="60" as="geometry"/>
                </mxCell>
                <mxCell id="-wl2Nt5sNTE4O7syCm0q-75" value="- text: String" style="text;strokeColor=none;fillColor=none;align=left;verticalAlign=top;spacingLeft=4;spacingRight=4;overflow=hidden;rotatable=0;points=[[0,0.5],[1,0.5]];portConstraint=eastwest;" vertex="1" parent="-wl2Nt5sNTE4O7syCm0q-73">
                    <mxGeometry y="26" width="90" height="26" as="geometry"/>
                </mxCell>
                <mxCell id="-wl2Nt5sNTE4O7syCm0q-76" value="" style="line;strokeWidth=1;fillColor=none;align=left;verticalAlign=middle;spacingTop=-1;spacingLeft=3;spacingRight=3;rotatable=0;labelPosition=right;points=[];portConstraint=eastwest;strokeColor=inherit;" vertex="1" parent="-wl2Nt5sNTE4O7syCm0q-73">
                    <mxGeometry y="52" width="90" height="8" as="geometry"/>
                </mxCell>
                <mxCell id="-wl2Nt5sNTE4O7syCm0q-78" value="Text.length&amp;gt;=1" style="text;html=1;align=center;verticalAlign=middle;resizable=0;points=[];autosize=1;strokeColor=none;fillColor=none;" vertex="1" parent="1">
                    <mxGeometry x="1200" y="660" width="100" height="30" as="geometry"/>
                </mxCell>
                <mxCell id="-wl2Nt5sNTE4O7syCm0q-79" value="FileMessage" style="swimlane;fontStyle=1;align=center;verticalAlign=top;childLayout=stackLayout;horizontal=1;startSize=26;horizontalStack=0;resizeParent=1;resizeParentMax=0;resizeLast=0;collapsible=1;marginBottom=0;" vertex="1" parent="1">
                    <mxGeometry x="1330" y="590" width="160" height="112" as="geometry"/>
                </mxCell>
                <mxCell id="-wl2Nt5sNTE4O7syCm0q-81" value="- text: String" style="text;strokeColor=none;fillColor=none;align=left;verticalAlign=top;spacingLeft=4;spacingRight=4;overflow=hidden;rotatable=0;points=[[0,0.5],[1,0.5]];portConstraint=eastwest;" vertex="1" parent="-wl2Nt5sNTE4O7syCm0q-79">
                    <mxGeometry y="26" width="160" height="26" as="geometry"/>
                </mxCell>
                <mxCell id="-wl2Nt5sNTE4O7syCm0q-97" value="- mediaUrl: String" style="text;strokeColor=none;fillColor=none;align=left;verticalAlign=top;spacingLeft=4;spacingRight=4;overflow=hidden;rotatable=0;points=[[0,0.5],[1,0.5]];portConstraint=eastwest;" vertex="1" parent="-wl2Nt5sNTE4O7syCm0q-79">
                    <mxGeometry y="52" width="160" height="26" as="geometry"/>
                </mxCell>
                <mxCell id="-wl2Nt5sNTE4O7syCm0q-82" value="" style="line;strokeWidth=1;fillColor=none;align=left;verticalAlign=middle;spacingTop=-1;spacingLeft=3;spacingRight=3;rotatable=0;labelPosition=right;points=[];portConstraint=eastwest;strokeColor=inherit;" vertex="1" parent="-wl2Nt5sNTE4O7syCm0q-79">
                    <mxGeometry y="78" width="160" height="8" as="geometry"/>
                </mxCell>
                <mxCell id="-wl2Nt5sNTE4O7syCm0q-105" value="+ download(): Future&lt;void&gt;" style="text;strokeColor=none;fillColor=none;align=left;verticalAlign=top;spacingLeft=4;spacingRight=4;overflow=hidden;rotatable=0;points=[[0,0.5],[1,0.5]];portConstraint=eastwest;" vertex="1" parent="-wl2Nt5sNTE4O7syCm0q-79">
                    <mxGeometry y="86" width="160" height="26" as="geometry"/>
                </mxCell>
                <mxCell id="-wl2Nt5sNTE4O7syCm0q-84" value="Text.length&amp;gt;=0" style="text;html=1;align=center;verticalAlign=middle;resizable=0;points=[];autosize=1;strokeColor=none;fillColor=none;" vertex="1" parent="1">
                    <mxGeometry x="1490" y="618" width="100" height="30" as="geometry"/>
                </mxCell>
                <mxCell id="-wl2Nt5sNTE4O7syCm0q-88" value="" style="endArrow=classic;html=1;exitX=0;exitY=0;exitDx=0;exitDy=0;" edge="1" parent="1" source="-wl2Nt5sNTE4O7syCm0q-79" target="-wl2Nt5sNTE4O7syCm0q-63">
                    <mxGeometry width="50" height="50" relative="1" as="geometry">
                        <mxPoint x="1130.0000000000002" y="600" as="sourcePoint"/>
                        <mxPoint x="1300.0000000000002" y="489.99800000000005" as="targetPoint"/>
                    </mxGeometry>
                </mxCell>
                <mxCell id="-wl2Nt5sNTE4O7syCm0q-89" value="StickerMessage" style="swimlane;fontStyle=1;align=center;verticalAlign=top;childLayout=stackLayout;horizontal=1;startSize=26;horizontalStack=0;resizeParent=1;resizeParentMax=0;resizeLast=0;collapsible=1;marginBottom=0;" vertex="1" parent="1">
                    <mxGeometry x="1313.75" y="760" width="192.5" height="60" as="geometry"/>
                </mxCell>
                <mxCell id="-wl2Nt5sNTE4O7syCm0q-92" value="" style="line;strokeWidth=1;fillColor=none;align=left;verticalAlign=middle;spacingTop=-1;spacingLeft=3;spacingRight=3;rotatable=0;labelPosition=right;points=[];portConstraint=eastwest;strokeColor=inherit;" vertex="1" parent="-wl2Nt5sNTE4O7syCm0q-89">
                    <mxGeometry y="26" width="192.5" height="8" as="geometry"/>
                </mxCell>
                <mxCell id="-wl2Nt5sNTE4O7syCm0q-106" value="+ addToFavorites(): Future&lt;void&gt;" style="text;strokeColor=none;fillColor=none;align=left;verticalAlign=top;spacingLeft=4;spacingRight=4;overflow=hidden;rotatable=0;points=[[0,0.5],[1,0.5]];portConstraint=eastwest;" vertex="1" parent="-wl2Nt5sNTE4O7syCm0q-89">
                    <mxGeometry y="34" width="192.5" height="26" as="geometry"/>
                </mxCell>
                <mxCell id="-wl2Nt5sNTE4O7syCm0q-95" value="" style="endArrow=classic;html=1;entryX=0.499;entryY=1.037;entryDx=0;entryDy=0;entryPerimeter=0;exitX=0.5;exitY=0;exitDx=0;exitDy=0;" edge="1" parent="1" source="-wl2Nt5sNTE4O7syCm0q-89">
                    <mxGeometry width="50" height="50" relative="1" as="geometry">
                        <mxPoint x="1280.0000000000002" y="840" as="sourcePoint"/>
                        <mxPoint x="1409.8400000000001" y="702.962" as="targetPoint"/>
                    </mxGeometry>
                </mxCell>
                <mxCell id="-wl2Nt5sNTE4O7syCm0q-98" value="ImageMessage" style="swimlane;fontStyle=1;align=center;verticalAlign=top;childLayout=stackLayout;horizontal=1;startSize=26;horizontalStack=0;resizeParent=1;resizeParentMax=0;resizeLast=0;collapsible=1;marginBottom=0;" vertex="1" collapsed="1" parent="1">
                    <mxGeometry x="1530" y="510" width="130" height="30" as="geometry">
                        <mxRectangle x="1530" y="510" width="110" height="34" as="alternateBounds"/>
                    </mxGeometry>
                </mxCell>
                <mxCell id="-wl2Nt5sNTE4O7syCm0q-101" value="" style="line;strokeWidth=1;fillColor=none;align=left;verticalAlign=middle;spacingTop=-1;spacingLeft=3;spacingRight=3;rotatable=0;labelPosition=right;points=[];portConstraint=eastwest;strokeColor=inherit;" vertex="1" parent="-wl2Nt5sNTE4O7syCm0q-98">
                    <mxGeometry y="26" width="110" height="8" as="geometry"/>
                </mxCell>
                <mxCell id="-wl2Nt5sNTE4O7syCm0q-104" value="" style="endArrow=classic;html=1;" edge="1" parent="1" source="-wl2Nt5sNTE4O7syCm0q-98" target="-wl2Nt5sNTE4O7syCm0q-79">
                    <mxGeometry width="50" height="50" relative="1" as="geometry">
                        <mxPoint x="1340.0000000000002" y="600" as="sourcePoint"/>
                        <mxPoint x="1310.0000000000002" y="499.99800000000005" as="targetPoint"/>
                    </mxGeometry>
                </mxCell>
                <mxCell id="-wl2Nt5sNTE4O7syCm0q-112" style="edgeStyle=none;html=1;entryX=1;entryY=0.5;entryDx=0;entryDy=0;" edge="1" parent="1" source="-wl2Nt5sNTE4O7syCm0q-14" target="-wl2Nt5sNTE4O7syCm0q-19">
                    <mxGeometry relative="1" as="geometry">
                        <Array as="points">
                            <mxPoint x="730" y="149"/>
                        </Array>
                    </mxGeometry>
                </mxCell>
                <mxCell id="-wl2Nt5sNTE4O7syCm0q-113" style="edgeStyle=none;html=1;entryX=1;entryY=0.5;entryDx=0;entryDy=0;exitX=0.003;exitY=0.522;exitDx=0;exitDy=0;exitPerimeter=0;" edge="1" parent="1" source="-wl2Nt5sNTE4O7syCm0q-62" target="-wl2Nt5sNTE4O7syCm0q-19">
                    <mxGeometry relative="1" as="geometry">
                        <Array as="points">
                            <mxPoint x="700" y="550"/>
                            <mxPoint x="700" y="410"/>
                        </Array>
                    </mxGeometry>
                </mxCell>
                <mxCell id="-wl2Nt5sNTE4O7syCm0q-116" style="edgeStyle=none;html=1;entryX=0;entryY=0.5;entryDx=0;entryDy=0;" edge="1" parent="1" source="-wl2Nt5sNTE4O7syCm0q-115" target="-wl2Nt5sNTE4O7syCm0q-14">
                    <mxGeometry relative="1" as="geometry">
                        <mxPoint x="920" y="320" as="targetPoint"/>
                        <Array as="points">
                            <mxPoint x="800" y="687"/>
                            <mxPoint x="800" y="170"/>
                        </Array>
                    </mxGeometry>
                </mxCell>
                <mxCell id="-wl2Nt5sNTE4O7syCm0q-119" value="MessageInChat" style="swimlane;fontStyle=1;align=center;verticalAlign=top;childLayout=stackLayout;horizontal=1;startSize=26;horizontalStack=0;resizeParent=1;resizeParentMax=0;resizeLast=0;collapsible=1;marginBottom=0;" vertex="1" parent="1">
                    <mxGeometry x="860" y="346" width="190" height="164" as="geometry"/>
                </mxCell>
                <mxCell id="-wl2Nt5sNTE4O7syCm0q-120" value="- msg_id: String" style="text;strokeColor=none;fillColor=none;align=left;verticalAlign=top;spacingLeft=4;spacingRight=4;overflow=hidden;rotatable=0;points=[[0,0.5],[1,0.5]];portConstraint=eastwest;" vertex="1" parent="-wl2Nt5sNTE4O7syCm0q-119">
                    <mxGeometry y="26" width="190" height="26" as="geometry"/>
                </mxCell>
                <mxCell id="-wl2Nt5sNTE4O7syCm0q-124" value="- chat_id: String" style="text;strokeColor=none;fillColor=none;align=left;verticalAlign=top;spacingLeft=4;spacingRight=4;overflow=hidden;rotatable=0;points=[[0,0.5],[1,0.5]];portConstraint=eastwest;" vertex="1" parent="-wl2Nt5sNTE4O7syCm0q-119">
                    <mxGeometry y="52" width="190" height="26" as="geometry"/>
                </mxCell>
                <mxCell id="-wl2Nt5sNTE4O7syCm0q-128" value="- readBy: List&lt;User&gt;" style="text;strokeColor=none;fillColor=none;align=left;verticalAlign=top;spacingLeft=4;spacingRight=4;overflow=hidden;rotatable=0;points=[[0,0.5],[1,0.5]];portConstraint=eastwest;" vertex="1" parent="-wl2Nt5sNTE4O7syCm0q-119">
                    <mxGeometry y="78" width="190" height="26" as="geometry"/>
                </mxCell>
                <mxCell id="-wl2Nt5sNTE4O7syCm0q-129" value="- arrivedTo: List&lt;User&gt;" style="text;strokeColor=none;fillColor=none;align=left;verticalAlign=top;spacingLeft=4;spacingRight=4;overflow=hidden;rotatable=0;points=[[0,0.5],[1,0.5]];portConstraint=eastwest;" vertex="1" parent="-wl2Nt5sNTE4O7syCm0q-119">
                    <mxGeometry y="104" width="190" height="26" as="geometry"/>
                </mxCell>
                <mxCell id="-wl2Nt5sNTE4O7syCm0q-131" value="- reactions: Map&lt;user_id,String&gt;" style="text;strokeColor=none;fillColor=none;align=left;verticalAlign=top;spacingLeft=4;spacingRight=4;overflow=hidden;rotatable=0;points=[[0,0.5],[1,0.5]];portConstraint=eastwest;" vertex="1" parent="-wl2Nt5sNTE4O7syCm0q-119">
                    <mxGeometry y="130" width="190" height="26" as="geometry"/>
                </mxCell>
                <mxCell id="-wl2Nt5sNTE4O7syCm0q-121" value="" style="line;strokeWidth=1;fillColor=none;align=left;verticalAlign=middle;spacingTop=-1;spacingLeft=3;spacingRight=3;rotatable=0;labelPosition=right;points=[];portConstraint=eastwest;strokeColor=inherit;" vertex="1" parent="-wl2Nt5sNTE4O7syCm0q-119">
                    <mxGeometry y="156" width="190" height="8" as="geometry"/>
                </mxCell>
                <mxCell id="-wl2Nt5sNTE4O7syCm0q-126" style="edgeStyle=none;html=1;entryX=0;entryY=0.5;entryDx=0;entryDy=0;exitX=1;exitY=0.5;exitDx=0;exitDy=0;" edge="1" parent="1" source="-wl2Nt5sNTE4O7syCm0q-120" target="-wl2Nt5sNTE4O7syCm0q-117">
                    <mxGeometry relative="1" as="geometry"/>
                </mxCell>
                <mxCell id="-wl2Nt5sNTE4O7syCm0q-127" style="edgeStyle=none;html=1;entryX=1;entryY=0.5;entryDx=0;entryDy=0;exitX=0;exitY=0.5;exitDx=0;exitDy=0;" edge="1" parent="1" source="-wl2Nt5sNTE4O7syCm0q-124" target="-wl2Nt5sNTE4O7syCm0q-118">
                    <mxGeometry relative="1" as="geometry"/>
                </mxCell>
                <mxCell id="-wl2Nt5sNTE4O7syCm0q-132" style="edgeStyle=none;html=1;" edge="1" parent="1" source="-wl2Nt5sNTE4O7syCm0q-130" target="-wl2Nt5sNTE4O7syCm0q-131">
                    <mxGeometry relative="1" as="geometry"/>
                </mxCell>
                <mxCell id="-wl2Nt5sNTE4O7syCm0q-130" value="Maor: thumbs up&lt;br&gt;ahmed: &amp;lt;3" style="text;html=1;align=center;verticalAlign=middle;resizable=0;points=[];autosize=1;strokeColor=none;fillColor=none;" vertex="1" parent="1">
                    <mxGeometry x="900" y="582" width="110" height="40" as="geometry"/>
                </mxCell>
                <mxCell id="-wl2Nt5sNTE4O7syCm0q-133" value="VideoMessage" style="swimlane;fontStyle=1;align=center;verticalAlign=top;childLayout=stackLayout;horizontal=1;startSize=26;horizontalStack=0;resizeParent=1;resizeParentMax=0;resizeLast=0;collapsible=1;marginBottom=0;" vertex="1" parent="1">
                    <mxGeometry x="1530" y="780" width="130" height="34" as="geometry"/>
                </mxCell>
                <mxCell id="-wl2Nt5sNTE4O7syCm0q-136" value="" style="line;strokeWidth=1;fillColor=none;align=left;verticalAlign=middle;spacingTop=-1;spacingLeft=3;spacingRight=3;rotatable=0;labelPosition=right;points=[];portConstraint=eastwest;strokeColor=inherit;" vertex="1" parent="-wl2Nt5sNTE4O7syCm0q-133">
                    <mxGeometry y="26" width="130" height="8" as="geometry"/>
                </mxCell>
                <mxCell id="-wl2Nt5sNTE4O7syCm0q-138" value="" style="endArrow=classic;html=1;" edge="1" parent="1" source="-wl2Nt5sNTE4O7syCm0q-133" target="-wl2Nt5sNTE4O7syCm0q-79">
                    <mxGeometry width="50" height="50" relative="1" as="geometry">
                        <mxPoint x="1420" y="770" as="sourcePoint"/>
                        <mxPoint x="1419.8400000000001" y="712.962" as="targetPoint"/>
                    </mxGeometry>
                </mxCell>
                <mxCell id="-wl2Nt5sNTE4O7syCm0q-141" style="edgeStyle=none;html=1;entryX=1;entryY=0.5;entryDx=0;entryDy=0;exitX=1;exitY=0.5;exitDx=0;exitDy=0;" edge="1" parent="1" source="-wl2Nt5sNTE4O7syCm0q-117" target="-wl2Nt5sNTE4O7syCm0q-14">
                    <mxGeometry relative="1" as="geometry">
                        <Array as="points">
                            <mxPoint x="1460" y="420"/>
                            <mxPoint x="1460" y="150"/>
                        </Array>
                    </mxGeometry>
                </mxCell>
                <mxCell id="-wl2Nt5sNTE4O7syCm0q-142" value="Status" style="swimlane;fontStyle=1;align=center;verticalAlign=top;childLayout=stackLayout;horizontal=1;startSize=26;horizontalStack=0;resizeParent=1;resizeParentMax=0;resizeLast=0;collapsible=1;marginBottom=0;" vertex="1" parent="1">
                    <mxGeometry x="520" y="70" width="120" height="130" as="geometry"/>
                </mxCell>
                <mxCell id="-wl2Nt5sNTE4O7syCm0q-147" value="- sender: String" style="text;strokeColor=none;fillColor=none;align=left;verticalAlign=top;spacingLeft=4;spacingRight=4;overflow=hidden;rotatable=0;points=[[0,0.5],[1,0.5]];portConstraint=eastwest;" vertex="1" parent="-wl2Nt5sNTE4O7syCm0q-142">
                    <mxGeometry y="26" width="120" height="26" as="geometry"/>
                </mxCell>
                <mxCell id="-wl2Nt5sNTE4O7syCm0q-146" value="- readBy: List&lt;User&gt;" style="text;strokeColor=none;fillColor=none;align=left;verticalAlign=top;spacingLeft=4;spacingRight=4;overflow=hidden;rotatable=0;points=[[0,0.5],[1,0.5]];portConstraint=eastwest;" vertex="1" parent="-wl2Nt5sNTE4O7syCm0q-142">
                    <mxGeometry y="52" width="120" height="26" as="geometry"/>
                </mxCell>
                <mxCell id="-wl2Nt5sNTE4O7syCm0q-143" value="- imageURL: String" style="text;strokeColor=none;fillColor=none;align=left;verticalAlign=top;spacingLeft=4;spacingRight=4;overflow=hidden;rotatable=0;points=[[0,0.5],[1,0.5]];portConstraint=eastwest;" vertex="1" parent="-wl2Nt5sNTE4O7syCm0q-142">
                    <mxGeometry y="78" width="120" height="26" as="geometry"/>
                </mxCell>
                <mxCell id="-wl2Nt5sNTE4O7syCm0q-150" value="- time: Datetime" style="text;strokeColor=none;fillColor=none;align=left;verticalAlign=top;spacingLeft=4;spacingRight=4;overflow=hidden;rotatable=0;points=[[0,0.5],[1,0.5]];portConstraint=eastwest;" vertex="1" parent="-wl2Nt5sNTE4O7syCm0q-142">
                    <mxGeometry y="104" width="120" height="26" as="geometry"/>
                </mxCell>
                <mxCell id="-wl2Nt5sNTE4O7syCm0q-148" style="edgeStyle=none;html=1;entryX=1;entryY=0.5;entryDx=0;entryDy=0;exitX=0;exitY=0.5;exitDx=0;exitDy=0;" edge="1" parent="1" source="-wl2Nt5sNTE4O7syCm0q-14" target="-wl2Nt5sNTE4O7syCm0q-147">
                    <mxGeometry relative="1" as="geometry"/>
                </mxCell>
                <mxCell id="-wl2Nt5sNTE4O7syCm0q-149" style="edgeStyle=none;html=1;entryX=0;entryY=0.5;entryDx=0;entryDy=0;exitX=1;exitY=0.5;exitDx=0;exitDy=0;" edge="1" parent="1" source="-wl2Nt5sNTE4O7syCm0q-146" target="-wl2Nt5sNTE4O7syCm0q-14">
                    <mxGeometry relative="1" as="geometry"/>
                </mxCell>
            </root>
        </mxGraphModel>
    </diagram>
</mxfile>